<mxfile host="app.diagrams.net" modified="2024-07-21T17:26:45.935Z" agent="Mozilla/5.0 (Windows NT 10.0; Win64; x64) AppleWebKit/537.36 (KHTML, like Gecko) Chrome/126.0.0.0 Safari/537.36" etag="QQA5kYlVwGdYIBHWASO1" version="24.7.1" type="github">
  <diagram name="Página-1" id="iXr9NkOBeNVls9SYtHVv">
    <mxGraphModel dx="2901" dy="738" grid="1" gridSize="10" guides="1" tooltips="1" connect="1" arrows="1" fold="1" page="1" pageScale="1" pageWidth="827" pageHeight="1169" math="0" shadow="0">
      <root>
        <mxCell id="0" />
        <mxCell id="1" parent="0" />
        <mxCell id="F2VOYk5s6DIBwr-9-c5b-51" value="" style="rounded=0;whiteSpace=wrap;html=1;fillColor=#f8cecc;strokeColor=#b85450;" vertex="1" parent="1">
          <mxGeometry x="580" y="473.75" width="170" height="92.5" as="geometry" />
        </mxCell>
        <mxCell id="F2VOYk5s6DIBwr-9-c5b-30" style="edgeStyle=orthogonalEdgeStyle;rounded=0;orthogonalLoop=1;jettySize=auto;html=1;entryX=1;entryY=0.5;entryDx=0;entryDy=0;" edge="1" parent="1" source="F2VOYk5s6DIBwr-9-c5b-1" target="F2VOYk5s6DIBwr-9-c5b-26">
          <mxGeometry relative="1" as="geometry">
            <Array as="points">
              <mxPoint x="735" y="505" />
            </Array>
          </mxGeometry>
        </mxCell>
        <mxCell id="F2VOYk5s6DIBwr-9-c5b-1" value="" style="image;html=1;image=img/lib/clip_art/networking/Firewall_128x128.png" vertex="1" parent="1">
          <mxGeometry x="830" y="465" width="80" height="80" as="geometry" />
        </mxCell>
        <mxCell id="F2VOYk5s6DIBwr-9-c5b-36" style="edgeStyle=orthogonalEdgeStyle;rounded=0;orthogonalLoop=1;jettySize=auto;html=1;entryX=0;entryY=0.5;entryDx=0;entryDy=0;" edge="1" parent="1" source="F2VOYk5s6DIBwr-9-c5b-2" target="F2VOYk5s6DIBwr-9-c5b-28">
          <mxGeometry relative="1" as="geometry">
            <Array as="points">
              <mxPoint x="520" y="535" />
              <mxPoint x="520" y="535" />
            </Array>
          </mxGeometry>
        </mxCell>
        <mxCell id="F2VOYk5s6DIBwr-9-c5b-38" style="edgeStyle=orthogonalEdgeStyle;rounded=0;orthogonalLoop=1;jettySize=auto;html=1;" edge="1" parent="1" source="F2VOYk5s6DIBwr-9-c5b-2" target="F2VOYk5s6DIBwr-9-c5b-37">
          <mxGeometry relative="1" as="geometry">
            <Array as="points">
              <mxPoint x="410" y="400" />
              <mxPoint x="410" y="400" />
            </Array>
          </mxGeometry>
        </mxCell>
        <mxCell id="F2VOYk5s6DIBwr-9-c5b-2" value="" style="image;html=1;image=img/lib/clip_art/networking/Firewall_02_128x128.png" vertex="1" parent="1">
          <mxGeometry x="310" y="420" width="190" height="200" as="geometry" />
        </mxCell>
        <mxCell id="F2VOYk5s6DIBwr-9-c5b-59" style="edgeStyle=orthogonalEdgeStyle;rounded=0;orthogonalLoop=1;jettySize=auto;html=1;entryX=0;entryY=0.5;entryDx=0;entryDy=0;" edge="1" parent="1" source="F2VOYk5s6DIBwr-9-c5b-3" target="F2VOYk5s6DIBwr-9-c5b-40">
          <mxGeometry relative="1" as="geometry">
            <Array as="points">
              <mxPoint x="20" y="505" />
              <mxPoint x="20" y="505" />
            </Array>
          </mxGeometry>
        </mxCell>
        <mxCell id="F2VOYk5s6DIBwr-9-c5b-3" value="" style="image;html=1;image=img/lib/clip_art/computers/Server_Rack_Partial_128x128.png" vertex="1" parent="1">
          <mxGeometry x="-75" y="477.5" width="80" height="80" as="geometry" />
        </mxCell>
        <mxCell id="F2VOYk5s6DIBwr-9-c5b-4" value="" style="image;html=1;image=img/lib/clip_art/computers/Server_128x128.png" vertex="1" parent="1">
          <mxGeometry x="375" y="840" width="80" height="80" as="geometry" />
        </mxCell>
        <mxCell id="F2VOYk5s6DIBwr-9-c5b-5" value="" style="image;html=1;image=img/lib/clip_art/networking/Cloud_128x128.png" vertex="1" parent="1">
          <mxGeometry x="360" y="140" width="90" height="90" as="geometry" />
        </mxCell>
        <mxCell id="F2VOYk5s6DIBwr-9-c5b-12" value="&lt;font style=&quot;font-size: 24px;&quot;&gt;WAF&lt;/font&gt;" style="text;html=1;align=center;verticalAlign=middle;whiteSpace=wrap;rounded=0;" vertex="1" parent="1">
          <mxGeometry x="840" y="425" width="60" height="30" as="geometry" />
        </mxCell>
        <mxCell id="F2VOYk5s6DIBwr-9-c5b-13" value="&lt;font style=&quot;font-size: 18px;&quot;&gt;DMZ EXTERNA&lt;/font&gt;" style="text;html=1;align=center;verticalAlign=middle;whiteSpace=wrap;rounded=0;" vertex="1" parent="1">
          <mxGeometry x="775" y="545" width="190" height="40" as="geometry" />
        </mxCell>
        <mxCell id="F2VOYk5s6DIBwr-9-c5b-17" value="&lt;font style=&quot;font-size: 24px;&quot;&gt;WEB&lt;/font&gt;" style="text;html=1;align=center;verticalAlign=middle;whiteSpace=wrap;rounded=0;" vertex="1" parent="1">
          <mxGeometry x="-65" y="437.5" width="60" height="30" as="geometry" />
        </mxCell>
        <mxCell id="F2VOYk5s6DIBwr-9-c5b-18" value="&lt;font style=&quot;font-size: 24px;&quot;&gt;INTRANET&lt;/font&gt;" style="text;html=1;align=center;verticalAlign=middle;whiteSpace=wrap;rounded=0;" vertex="1" parent="1">
          <mxGeometry x="385" y="915" width="60" height="30" as="geometry" />
        </mxCell>
        <mxCell id="F2VOYk5s6DIBwr-9-c5b-61" style="edgeStyle=orthogonalEdgeStyle;rounded=0;orthogonalLoop=1;jettySize=auto;html=1;" edge="1" parent="1" source="F2VOYk5s6DIBwr-9-c5b-19" target="F2VOYk5s6DIBwr-9-c5b-55">
          <mxGeometry relative="1" as="geometry" />
        </mxCell>
        <mxCell id="F2VOYk5s6DIBwr-9-c5b-19" value="&lt;font style=&quot;font-size: 24px;&quot;&gt;FIREWALL&lt;/font&gt;" style="text;html=1;align=center;verticalAlign=middle;whiteSpace=wrap;rounded=0;" vertex="1" parent="1">
          <mxGeometry x="384" y="630" width="60" height="30" as="geometry" />
        </mxCell>
        <mxCell id="F2VOYk5s6DIBwr-9-c5b-21" value="&lt;font style=&quot;font-size: 24px;&quot;&gt;INTERNET&lt;/font&gt;" style="text;html=1;align=center;verticalAlign=middle;whiteSpace=wrap;rounded=0;" vertex="1" parent="1">
          <mxGeometry x="380" y="230" width="60" height="30" as="geometry" />
        </mxCell>
        <mxCell id="F2VOYk5s6DIBwr-9-c5b-24" value="&lt;font style=&quot;font-size: 18px;&quot;&gt;DMZ WEB&lt;/font&gt;" style="text;html=1;align=center;verticalAlign=middle;whiteSpace=wrap;rounded=0;" vertex="1" parent="1">
          <mxGeometry x="-130" y="562.5" width="190" height="40" as="geometry" />
        </mxCell>
        <mxCell id="F2VOYk5s6DIBwr-9-c5b-25" value="&lt;font style=&quot;font-size: 36px;&quot;&gt;CONFIGURAÇÕES PFSENSE VIRTUAL BOX&lt;/font&gt;" style="text;html=1;align=center;verticalAlign=middle;whiteSpace=wrap;rounded=0;" vertex="1" parent="1">
          <mxGeometry x="40" y="30" width="760" height="30" as="geometry" />
        </mxCell>
        <mxCell id="F2VOYk5s6DIBwr-9-c5b-35" style="edgeStyle=orthogonalEdgeStyle;rounded=0;orthogonalLoop=1;jettySize=auto;html=1;" edge="1" parent="1" source="F2VOYk5s6DIBwr-9-c5b-26" target="F2VOYk5s6DIBwr-9-c5b-2">
          <mxGeometry relative="1" as="geometry">
            <Array as="points">
              <mxPoint x="520" y="505" />
              <mxPoint x="520" y="505" />
            </Array>
          </mxGeometry>
        </mxCell>
        <mxCell id="F2VOYk5s6DIBwr-9-c5b-26" value="IP Interno: 172.100.2.100/24" style="text;html=1;align=center;verticalAlign=middle;whiteSpace=wrap;rounded=0;" vertex="1" parent="1">
          <mxGeometry x="595" y="490" width="140" height="30" as="geometry" />
        </mxCell>
        <mxCell id="F2VOYk5s6DIBwr-9-c5b-33" style="edgeStyle=orthogonalEdgeStyle;rounded=0;orthogonalLoop=1;jettySize=auto;html=1;entryX=0;entryY=0.75;entryDx=0;entryDy=0;" edge="1" parent="1" source="F2VOYk5s6DIBwr-9-c5b-28" target="F2VOYk5s6DIBwr-9-c5b-1">
          <mxGeometry relative="1" as="geometry" />
        </mxCell>
        <mxCell id="F2VOYk5s6DIBwr-9-c5b-28" value="IP Externo: 192.168.0.100/24" style="text;html=1;align=center;verticalAlign=middle;whiteSpace=wrap;rounded=0;" vertex="1" parent="1">
          <mxGeometry x="590" y="520" width="150" height="30" as="geometry" />
        </mxCell>
        <mxCell id="F2VOYk5s6DIBwr-9-c5b-39" style="edgeStyle=orthogonalEdgeStyle;rounded=0;orthogonalLoop=1;jettySize=auto;html=1;entryX=0.5;entryY=1;entryDx=0;entryDy=0;" edge="1" parent="1" source="F2VOYk5s6DIBwr-9-c5b-37" target="F2VOYk5s6DIBwr-9-c5b-21">
          <mxGeometry relative="1" as="geometry" />
        </mxCell>
        <mxCell id="F2VOYk5s6DIBwr-9-c5b-37" value="DHCP" style="text;html=1;align=center;verticalAlign=middle;whiteSpace=wrap;rounded=0;" vertex="1" parent="1">
          <mxGeometry x="340" y="310" width="140" height="30" as="geometry" />
        </mxCell>
        <mxCell id="F2VOYk5s6DIBwr-9-c5b-40" value="IP Interno: 172.100.1.10/24" style="text;html=1;align=center;verticalAlign=middle;whiteSpace=wrap;rounded=0;" vertex="1" parent="1">
          <mxGeometry x="85" y="490" width="140" height="30" as="geometry" />
        </mxCell>
        <mxCell id="F2VOYk5s6DIBwr-9-c5b-53" style="edgeStyle=orthogonalEdgeStyle;rounded=0;orthogonalLoop=1;jettySize=auto;html=1;" edge="1" parent="1" source="F2VOYk5s6DIBwr-9-c5b-52" target="F2VOYk5s6DIBwr-9-c5b-51">
          <mxGeometry relative="1" as="geometry" />
        </mxCell>
        <mxCell id="F2VOYk5s6DIBwr-9-c5b-52" value="&lt;font style=&quot;font-size: 36px;&quot;&gt;NAT&lt;/font&gt;" style="text;html=1;align=center;verticalAlign=middle;whiteSpace=wrap;rounded=0;" vertex="1" parent="1">
          <mxGeometry x="635" y="390" width="60" height="30" as="geometry" />
        </mxCell>
        <mxCell id="F2VOYk5s6DIBwr-9-c5b-62" style="edgeStyle=orthogonalEdgeStyle;rounded=0;orthogonalLoop=1;jettySize=auto;html=1;entryX=0.5;entryY=0;entryDx=0;entryDy=0;" edge="1" parent="1" source="F2VOYk5s6DIBwr-9-c5b-55" target="F2VOYk5s6DIBwr-9-c5b-4">
          <mxGeometry relative="1" as="geometry" />
        </mxCell>
        <mxCell id="F2VOYk5s6DIBwr-9-c5b-55" value="IP Externo: 192.168.56.10/24" style="text;html=1;align=center;verticalAlign=middle;whiteSpace=wrap;rounded=0;" vertex="1" parent="1">
          <mxGeometry x="340" y="740" width="150" height="30" as="geometry" />
        </mxCell>
        <mxCell id="F2VOYk5s6DIBwr-9-c5b-60" style="edgeStyle=orthogonalEdgeStyle;rounded=0;orthogonalLoop=1;jettySize=auto;html=1;entryX=-0.005;entryY=0.425;entryDx=0;entryDy=0;entryPerimeter=0;" edge="1" parent="1" source="F2VOYk5s6DIBwr-9-c5b-40" target="F2VOYk5s6DIBwr-9-c5b-2">
          <mxGeometry relative="1" as="geometry" />
        </mxCell>
      </root>
    </mxGraphModel>
  </diagram>
</mxfile>
